<svg xmlns="http://www.w3.org/2000/svg" width="58" height="32" viewBox="0 0 58 32" fill="none"> <path fill-rule="evenodd" clip-rule="evenodd" d="M9.18896 0C6.97983 0 5.18896 1.79086 5.18896 4V11.2227L0.265731 15.4497C0.182844 15.5158 0.115895 15.5996 0.0698902 15.6951C0.0238852 15.7906 0 15.8951 0 16.0011C0 16.1071 0.0238852 16.2117 0.0698902 16.3071C0.115895 16.4026 0.182844 16.4865 0.265731 16.5525L5.18896 20.7795V28C5.18896 30.2091 6.97983 32 9.18897 32H47.8917C50.1008 32 51.8917 30.2091 51.8917 28V20.7907L56.828 16.5525C56.9109 16.4865 56.9778 16.4026 57.0238 16.3071C57.0698 16.2117 57.0937 16.1071 57.0937 16.0011C57.0937 15.8951 57.0698 15.7906 57.0238 15.6951C56.9778 15.5996 56.9109 15.5158 56.828 15.4497L51.8917 11.2115V4C51.8917 1.79086 50.1008 0 47.8917 0H9.18896Z" fill="#AF0340"/> <path d="M25.9184 20.0496L23.8845 21.8679L24.2214 23.1097L20.2901 23.6264L21.3267 19.7873L22.439 20.2509L24.4729 18.4326L22.544 16.2748L22.4121 13.9651L23.9243 14.1432L30.2402 21.2084L30.2483 22.6099L27.9744 22.3494L25.9184 20.0496ZM32.9359 12.4856L28.1792 17.393L29.9487 19.3723L38.5126 10.262L39.9561 6.04604L35.7046 7.09149L25.617 14.4974L27.388 16.4786L32.9359 12.4856Z" fill="white"/> </svg>