<svg xmlns="http://www.w3.org/2000/svg" width="16" height="16" viewBox="0 0 16 16" fill="none"> <path d="M10.8333 15.0003C11.4777 15.0003 12 14.478 12 13.8337C12 13.1893 11.4777 12.667 10.8333 12.667C10.189 12.667 9.66666 13.1893 9.66666 13.8337C9.66666 14.478 10.189 15.0003 10.8333 15.0003Z" fill="white"/> <path d="M5.50001 15.0003C6.14434 15.0003 6.66668 14.478 6.66668 13.8337C6.66668 13.1893 6.14434 12.667 5.50001 12.667C4.85568 12.667 4.33334 13.1893 4.33334 13.8337C4.33334 14.478 4.85568 15.0003 5.50001 15.0003Z" fill="white"/> <path d="M3.22668 2.62634L3.09334 4.25967C3.06668 4.57301 3.31334 4.83301 3.62668 4.83301H13.8333C14.1133 4.83301 14.3467 4.61967 14.3667 4.33967C14.4533 3.15967 13.5533 2.19967 12.3733 2.19967H4.18001C4.11334 1.90634 3.98001 1.62634 3.77334 1.39301C3.44001 1.03967 2.97334 0.833008 2.49334 0.833008H1.33334C1.06001 0.833008 0.833344 1.05967 0.833344 1.33301C0.833344 1.60634 1.06001 1.83301 1.33334 1.83301H2.49334C2.70001 1.83301 2.89334 1.91967 3.03334 2.06634C3.17334 2.21967 3.24001 2.41967 3.22668 2.62634Z" fill="white"/> <path d="M13.6733 5.83301H3.44666C3.16666 5.83301 2.93999 6.04634 2.91333 6.31967L2.67333 9.21967C2.57999 10.3597 3.47333 11.333 4.61333 11.333H12.0267C13.0267 11.333 13.9067 10.513 13.98 9.51301L14.2 6.39967C14.2267 6.09301 13.9867 5.83301 13.6733 5.83301Z" fill="white"/> </svg>