<svg xmlns="http://www.w3.org/2000/svg" width="25" height="25" viewBox="0 0 25 25" fill="none"> <path d="M12.1186 2.15515L12.7688 3.46715L14.2211 3.6783L13.1699 4.69857L13.4173 6.13952L12.1186 5.45934L10.82 6.13952L11.0674 4.69857L10.0162 3.6783L11.4685 3.46715L12.1186 2.15515Z" fill="white"/> <path d="M15.0724 3.83924L14.102 4.78536C16.0365 5.27465 17.7246 6.45203 18.8485 8.09572C19.9724 9.7394 20.4545 11.7359 20.2039 13.7093C19.9533 15.6826 18.9873 17.4964 17.4879 18.8092C15.9886 20.122 14.0593 20.8431 12.0636 20.8366C10.0678 20.8301 8.14329 20.0965 6.65254 18.774C5.1618 17.4516 4.20773 15.6314 3.97003 13.6565C3.73233 11.6816 4.22741 9.68829 5.36203 8.05193C6.49664 6.41558 8.19247 5.24919 10.1301 4.77247L9.15973 3.82312C7.04849 4.51814 5.25428 5.93922 4.09817 7.83206C2.94206 9.7249 2.49949 11.966 2.84966 14.1543C3.19983 16.3426 4.31989 18.3353 6.00941 19.7758C7.69892 21.2164 9.84764 22.0107 12.0711 22.0168C14.2945 22.0229 16.4475 21.2402 18.1449 19.8089C19.8423 18.3775 20.9733 16.3909 21.3354 14.2046C21.6976 12.0182 21.2673 9.77477 20.1216 7.87567C18.9759 5.97656 17.1895 4.54574 15.0821 3.83924H15.0724Z" fill="white"/> <path d="M16.0595 8.382C16.0418 8.35325 16.0183 8.3285 15.9904 8.30935C15.9626 8.2902 15.931 8.27706 15.8978 8.27079L14.5328 7.98228C14.4742 7.96939 14.4129 7.97876 14.3608 8.00857C14.3088 8.03839 14.2698 8.08649 14.2514 8.14346C13.8698 9.528 12.149 9.37326 12.0827 9.36682C12.0827 9.36682 10.3037 9.55378 9.91074 8.14668C9.89368 8.08775 9.85479 8.03749 9.80194 8.00606C9.74909 7.97464 9.68624 7.96441 9.6261 7.97745L8.26439 8.26596C8.23093 8.27163 8.19912 8.28452 8.17119 8.30373C8.14325 8.32294 8.11986 8.34801 8.10266 8.37717L6.07465 11.7313L8.27247 12.6613C8.4908 12.4034 8.44875 12.6436 8.45684 13.1449L8.41641 17.6144C8.41598 17.6461 8.4219 17.6776 8.43384 17.707C8.44578 17.7365 8.46349 17.7632 8.48593 17.7857C8.50837 17.8082 8.53509 17.8261 8.56453 17.8382C8.59397 17.8502 8.62553 17.8564 8.65738 17.8561H12.0746H15.4935C15.5579 17.8557 15.6196 17.8299 15.6651 17.7843C15.7105 17.7387 15.736 17.677 15.736 17.6128L15.6956 13.1449C15.6552 12.5485 15.7231 12.5211 15.867 12.6823L18.0827 11.7442L16.0595 8.382Z" fill="white"/> <path d="M16.1221 12.9861L16.1609 13.0312C16.2191 13.1424 16.5005 13.4632 16.6153 13.4132L18.3232 12.6847C18.4574 12.6283 18.3636 12.1931 18.2892 12.069L16.1221 12.9861Z" fill="white"/> <path d="M5.88464 12.0621C5.81025 12.1878 5.7585 12.4924 5.88464 12.5456L7.59249 13.2741C7.70731 13.3241 7.94667 13.1339 8.00489 13.0227C8.01783 13.0017 8.03239 12.984 8.04532 12.9647L5.88141 12.0508L5.88464 12.0621Z" fill="white"/> </svg>