<svg xmlns="http://www.w3.org/2000/svg" width="25" height="25" viewBox="0 0 25 25" fill="none"> <path d="M9.77584 14.5068C9.8889 14.1722 9.77584 13.5014 9.57408 12.9207C9.28362 12.3625 7.35645 12.0054 6.93031 11.9603C6.9077 12.8548 7.40167 13.3003 7.91651 13.881C8.43135 14.4617 9.64192 14.6853 9.77584 14.5068Z" fill="white"/> <path d="M3.50098 12.7649C3.77058 19.0419 9.50694 21.0059 10.4705 21.1896C10.4705 21.1896 9.91047 18.0139 9.30517 16.4728C8.07198 14.8641 4.19498 13.0787 3.50098 12.7649Z" fill="white"/> <path d="M20.4071 6.89354L20.1166 6.8346C20.1166 6.8346 18.3372 3.77846 12.9853 3.73686H12.874C7.52549 3.77846 5.74266 6.8346 5.74266 6.8346L5.45219 6.89354L3.23279 2.98279V9.00666L3.69023 10.2201C5.86963 10.1629 8.3395 11.4665 9.59009 12.0749C10.8076 13.1462 10.7815 14.5642 10.8685 15.6945C11.2372 16.1608 12.4983 16.2526 12.8792 16.27H12.9905C13.3714 16.2526 14.6324 16.1608 15.0012 15.6945C15.0882 14.5642 15.0586 13.1462 16.2796 12.0749C17.5302 11.4665 20.0001 10.1681 22.1795 10.2201L22.6369 9.00666V2.98279L20.4071 6.89354Z" fill="white"/> <path d="M17.9523 13.8869C18.4741 13.3062 18.9594 12.8607 18.9385 11.9662C18.5124 12.0113 16.5852 12.3684 16.293 12.9265C16.0912 13.5073 15.9799 14.1781 16.0912 14.5127C16.2269 14.686 17.4357 14.4624 17.9523 13.8869Z" fill="white"/> <path d="M16.5628 16.4728C15.9575 18.0139 15.3974 21.1896 15.3974 21.1896C16.361 21.0059 22.0974 19.0419 22.367 12.7649C21.6712 13.0787 17.7942 14.8641 16.5628 16.4728Z" fill="white"/> </svg>