<svg xmlns="http://www.w3.org/2000/svg" width="81" height="80" viewBox="0 0 81 80" fill="none"> <path d="M34.9524 3.29914C38.4884 1.25763 42.845 1.25763 46.381 3.29914L69.5934 16.7009C73.1294 18.7424 75.3077 22.5153 75.3077 26.5983V53.4017C75.3077 57.4847 73.1294 61.2576 69.5934 63.2991L46.381 76.7009C42.845 78.7424 38.4884 78.7424 34.9524 76.7009L11.74 63.2991C8.20394 61.2576 6.02567 57.4847 6.02567 53.4017V26.5983C6.02567 22.5153 8.20394 18.7424 11.74 16.7009L34.9524 3.29914Z" fill="#5336D0"/> <path d="M36.1346 43.0571C36.3069 42.5473 36.1346 41.525 35.8272 40.6401C35.3846 39.7896 32.4479 39.2454 31.7986 39.1768C31.7641 40.5398 32.5169 41.2186 33.3014 42.1035C34.0859 42.9884 35.9306 43.3291 36.1346 43.0571Z" fill="white"/> <path d="M26.5729 40.4023C26.9837 49.9672 35.7248 52.9601 37.1932 53.2401C37.1932 53.2401 36.3397 48.4008 35.4174 46.0525C33.5382 43.6012 27.6304 40.8805 26.5729 40.4023Z" fill="white"/> <path d="M52.3346 31.4553L51.892 31.3655C51.892 31.3655 49.1806 26.7085 41.0252 26.6452H40.8556C32.7055 26.7085 29.9888 31.3655 29.9888 31.3655L29.5462 31.4553L26.1642 25.4961V34.6753L26.8613 36.5244C30.1823 36.4372 33.9459 38.4236 35.8516 39.3508C37.7069 40.9832 37.6671 43.144 37.7996 44.8663C38.3615 45.5768 40.2831 45.7168 40.8635 45.7432H41.0331C41.6136 45.7168 43.5352 45.5768 44.097 44.8663C44.2296 43.144 44.1845 40.9832 46.0451 39.3508C47.9508 38.4236 51.7144 36.4451 55.0354 36.5244L55.7324 34.6753V25.4961L52.3346 31.4553Z" fill="white"/> <path d="M48.594 42.1133C49.3891 41.2284 50.1286 40.5496 50.0968 39.1865C49.4474 39.2552 46.5108 39.7994 46.0655 40.6499C45.758 41.5348 45.5884 42.5571 45.758 43.0669C45.9648 43.3311 47.8068 42.9903 48.594 42.1133Z" fill="white"/> <path d="M46.4766 46.0525C45.5542 48.4008 44.7008 53.2401 44.7008 53.2401C46.1691 52.9601 54.9103 49.9672 55.3211 40.4023C54.2609 40.8805 48.3531 43.6012 46.4766 46.0525Z" fill="white"/> </svg>