<svg xmlns="http://www.w3.org/2000/svg" width="58" height="32" viewBox="0 0 58 32" fill="none"> <path fill-rule="evenodd" clip-rule="evenodd" d="M9.18896 0C6.97983 0 5.18896 1.79086 5.18896 4V11.2227L0.265731 15.4497C0.182844 15.5158 0.115895 15.5996 0.0698902 15.6951C0.0238852 15.7906 0 15.8951 0 16.0011C0 16.1071 0.0238852 16.2117 0.0698902 16.3071C0.115895 16.4026 0.182844 16.4865 0.265731 16.5525L5.18896 20.7795V28C5.18896 30.2091 6.97983 32 9.18897 32H47.8917C50.1008 32 51.8917 30.2091 51.8917 28V20.7907L56.828 16.5525C56.9109 16.4865 56.9778 16.4026 57.0238 16.3071C57.0698 16.2117 57.0937 16.1071 57.0937 16.0011C57.0937 15.8951 57.0698 15.7906 57.0238 15.6951C56.9778 15.5996 56.9109 15.5158 56.828 15.4497L51.8917 11.2115V4C51.8917 1.79086 50.1008 0 47.8917 0H9.18896Z" fill="#D44D0B"/> <path d="M28.3244 10.4505C29.4647 10.4505 30.5794 10.7886 31.5276 11.4222C32.4757 12.0557 33.2147 12.9561 33.6511 14.0096C34.0875 15.0632 34.2016 16.2224 33.9792 17.3408C33.7567 18.4592 33.2076 19.4865 32.4013 20.2929C31.595 21.0992 30.5676 21.6483 29.4492 21.8708C28.3308 22.0932 27.1716 21.9791 26.1181 21.5427C25.0646 21.1063 24.1641 20.3673 23.5306 19.4192C22.897 18.471 22.5589 17.3563 22.5589 16.216C22.5589 14.6869 23.1663 13.2204 24.2476 12.1392C25.3288 11.0579 26.7953 10.4505 28.3244 10.4505ZM28.3244 8.74219C26.8462 8.74219 25.4013 9.18052 24.1722 10.0018C22.9431 10.823 21.9852 11.9902 21.4195 13.3559C20.8538 14.7216 20.7058 16.2243 20.9942 17.6741C21.2826 19.1239 21.9944 20.4556 23.0396 21.5008C24.0849 22.5461 25.4166 23.2579 26.8664 23.5463C28.3161 23.8346 29.8189 23.6866 31.1845 23.1209C32.5502 22.5553 33.7175 21.5973 34.5387 20.3683C35.3599 19.1392 35.7983 17.6942 35.7983 16.216C35.7983 14.2338 35.0109 12.3328 33.6092 10.9312C32.2076 9.52961 30.3066 8.74219 28.3244 8.74219Z" fill="white"/> <path d="M28.3244 17.9244C29.2679 17.9244 30.0327 17.1596 30.0327 16.2161C30.0327 15.2726 29.2679 14.5078 28.3244 14.5078C27.3809 14.5078 26.6161 15.2726 26.6161 16.2161C26.6161 17.1596 27.3809 17.9244 28.3244 17.9244Z" fill="white"/> <path d="M28.158 4.32422L27.0732 9.41497L27.9573 12.8359H28.6919L29.5759 9.41497L28.4911 4.32422H28.158Z" fill="white"/> <path d="M16.4326 16.3827L21.5234 17.4675L24.9442 16.5835V15.8489L21.5234 14.9648L16.4326 16.0496V16.3827Z" fill="white"/> <path d="M28.4911 28.1083L29.5759 23.0176L28.6919 19.5967H27.9573L27.0732 23.0176L28.158 28.1083H28.4911Z" fill="white"/> <path d="M40.2162 16.0496L35.1255 14.9648L31.7046 15.8489V16.5835L35.1255 17.4675L40.2162 16.3827V16.0496Z" fill="white"/> </svg>