<svg xmlns="http://www.w3.org/2000/svg" width="58" height="32" viewBox="0 0 58 32" fill="none"> <path fill-rule="evenodd" clip-rule="evenodd" d="M9.18896 0C6.97983 0 5.18896 1.79086 5.18896 4V11.2227L0.265731 15.4497C0.182844 15.5158 0.115895 15.5996 0.0698902 15.6951C0.0238852 15.7906 0 15.8951 0 16.0011C0 16.1071 0.0238852 16.2117 0.0698902 16.3071C0.115895 16.4026 0.182844 16.4865 0.265731 16.5525L5.18896 20.7795V28C5.18896 30.2091 6.97983 32 9.18897 32H47.8917C50.1008 32 51.8917 30.2091 51.8917 28V20.7907L56.828 16.5525C56.9109 16.4865 56.9778 16.4026 57.0238 16.3071C57.0698 16.2117 57.0937 16.1071 57.0937 16.0011C57.0937 15.8951 57.0698 15.7906 57.0238 15.6951C56.9778 15.5996 56.9109 15.5158 56.828 15.4497L51.8917 11.2115V4C51.8917 1.79086 50.1008 0 47.8917 0H9.18896Z" fill="#1442C6"/> <path d="M28.6375 6.91797C24.8548 6.91797 22.6482 7.6027 20.7568 8.63189V18.9113C21.7025 21.3099 28.6375 25.0801 28.6375 25.0801C28.6375 25.0801 35.5726 21.3099 36.5182 18.9113V8.63189C34.6269 7.6027 32.4203 6.91797 28.6375 6.91797ZM34.2219 18.4374C33.8983 18.8298 33.0487 19.6899 30.9423 21.0886C30.1782 21.5959 29.435 22.051 28.8547 22.3996V9.63186C31.4036 9.63186 33.0299 9.97422 34.2261 10.4335L34.2219 18.4374Z" fill="white"/> </svg>