<svg xmlns="http://www.w3.org/2000/svg" width="80" height="80" viewBox="0 0 80 80" fill="none"> <path d="M34.2286 3.33214C37.7999 1.2702 42.2001 1.2702 45.7714 3.33214L68.8696 16.6679C72.441 18.7298 74.641 22.5404 74.641 26.6643V53.3357C74.641 57.4596 72.441 61.2702 68.8696 63.3321L45.7714 76.6679C42.2001 78.7298 37.7999 78.7298 34.2286 76.6679L11.1304 63.3321C7.55904 61.2702 5.35898 57.4596 5.35898 53.3357V26.6643C5.35898 22.5404 7.55904 18.7298 11.1304 16.6679L34.2286 3.33214Z" fill="#5336D0"/> <path d="M46.3847 24.7617H33.6152C28.0685 24.7617 24.7619 28.0684 24.7619 33.6151V46.3693C24.7619 51.9312 28.0685 55.2379 33.6152 55.2379H46.3695C51.9162 55.2379 55.2228 51.9312 55.2228 46.3846V33.6151C55.2381 28.0684 51.9314 24.7617 46.3847 24.7617ZM33.3409 49.3712C33.3409 49.996 32.8228 50.5141 32.1981 50.5141C31.5733 50.5141 31.0552 49.996 31.0552 49.3712V46.217C31.0552 45.5922 31.5733 45.0741 32.1981 45.0741C32.8228 45.0741 33.3409 45.5922 33.3409 46.217V49.3712ZM41.1428 49.3712C41.1428 49.996 40.6247 50.5141 40 50.5141C39.3752 50.5141 38.8571 49.996 38.8571 49.3712V43.0474C38.8571 42.4227 39.3752 41.9046 40 41.9046C40.6247 41.9046 41.1428 42.4227 41.1428 43.0474V49.3712ZM48.9447 49.3712C48.9447 49.996 48.4266 50.5141 47.8019 50.5141C47.1771 50.5141 46.659 49.996 46.659 49.3712V39.8931C46.659 39.2684 47.1771 38.7503 47.8019 38.7503C48.4266 38.7503 48.9447 39.2684 48.9447 39.8931V49.3712ZM48.9447 35.0779C48.9447 35.7027 48.4266 36.2208 47.8019 36.2208C47.1771 36.2208 46.659 35.7027 46.659 35.0779V33.5998C42.7733 37.5922 37.9123 40.4112 32.4723 41.7674C32.3809 41.7979 32.2895 41.7979 32.1981 41.7979C31.68 41.7979 31.2228 41.4474 31.0857 40.9293C30.9333 40.3198 31.299 39.6951 31.9238 39.5427C37.059 38.2627 41.6304 35.5655 45.2571 31.756H43.3523C42.7276 31.756 42.2095 31.2379 42.2095 30.6131C42.2095 29.9884 42.7276 29.4703 43.3523 29.4703H47.8171C47.8781 29.4703 47.9238 29.5008 47.9847 29.5008C48.0609 29.516 48.1371 29.516 48.2133 29.5465C48.2895 29.577 48.3504 29.6227 48.4266 29.6684C48.4723 29.6989 48.5181 29.7141 48.5638 29.7446C48.579 29.7598 48.579 29.7751 48.5943 29.7751C48.6552 29.836 48.7009 29.897 48.7466 29.9579C48.7923 30.0189 48.8381 30.0646 48.8533 30.1255C48.8838 30.1865 48.8838 30.2474 48.899 30.3236C48.9143 30.3998 48.9447 30.476 48.9447 30.5674C48.9447 30.5827 48.96 30.5979 48.96 30.6131V35.0779H48.9447Z" fill="white"/> </svg>