<svg xmlns="http://www.w3.org/2000/svg" width="81" height="80" viewBox="0 0 81 80" fill="none"> <path d="M34.6191 3.29914C38.1551 1.25763 42.5116 1.25763 46.0476 3.29914L69.2601 16.7009C72.7961 18.7424 74.9744 22.5153 74.9744 26.5983V53.4017C74.9744 57.4847 72.7961 61.2576 69.2601 63.2991L46.0476 76.7009C42.5116 78.7424 38.1551 78.7424 34.6191 76.7009L11.4066 63.2991C7.8706 61.2576 5.69233 57.4847 5.69233 53.4017V26.5983C5.69233 22.5153 7.8706 18.7424 11.4066 16.7009L34.6191 3.29914Z" fill="#5336D0"/> <path d="M54.2858 56.6666H26.8572C26.2324 56.6666 25.7143 56.1485 25.7143 55.5237C25.7143 54.899 26.2324 54.3809 26.8572 54.3809H54.2858C54.9105 54.3809 55.4286 54.899 55.4286 55.5237C55.4286 56.1485 54.9105 56.6666 54.2858 56.6666Z" fill="white"/> <path d="M30.8191 34.7705H28.381C27.5429 34.7705 26.8571 35.4562 26.8571 36.2943V49.4296C26.8571 50.2676 27.5429 50.9534 28.381 50.9534H30.8191C31.6571 50.9534 32.3429 50.2676 32.3429 49.4296V36.2943C32.3429 35.441 31.6571 34.7705 30.8191 34.7705Z" fill="white"/> <path d="M41.7905 29.9092H39.3524C38.5143 29.9092 37.8286 30.5949 37.8286 31.433V49.4292C37.8286 50.2673 38.5143 50.953 39.3524 50.953H41.7905C42.6286 50.953 43.3143 50.2673 43.3143 49.4292V31.433C43.3143 30.5949 42.6286 29.9092 41.7905 29.9092Z" fill="white"/> <path d="M52.7619 25.0479H50.3239C49.4858 25.0479 48.8 25.7336 48.8 26.5717V49.4288C48.8 50.2669 49.4858 50.9526 50.3239 50.9526H52.7619C53.6 50.9526 54.2858 50.2669 54.2858 49.4288V26.5717C54.2858 25.7336 53.6 25.0479 52.7619 25.0479Z" fill="white"/> </svg>